<svg version="1.1" id="Layer_1" xmlns="http://www.w3.org/2000/svg" xmlns:xlink="http://www.w3.org/1999/xlink" x="0px" y="0px" width="100%" viewBox="0 0 500 500" enable-background="new 0 0 500 500" xml:space="preserve">

<path fill="#020202" opacity="1.000000" stroke="none" d="
M389.962219,432.180176 
	C374.015533,436.777527 360.759552,427.183044 362.284302,412.030823 
	C362.683838,408.060394 365.012238,403.868866 367.539490,400.623505 
	C371.484497,395.557556 376.355255,391.212433 381.815857,385.542114 
	C378.951263,385.388123 377.298889,385.223755 375.646362,385.221741 
	C349.652161,385.190186 323.656586,385.014618 297.664215,385.225555 
	C281.856995,385.353821 268.520386,380.342133 258.658295,367.737732 
	C255.615555,363.848938 253.153076,359.396729 251.027054,354.916687 
	C225.066803,300.212158 199.177933,245.473526 173.406738,190.679688 
	C170.904800,185.360092 167.642395,183.099686 161.509369,183.161301 
	C132.018921,183.457474 102.523422,183.346878 73.030342,183.226273 
	C64.613152,183.191864 58.204861,179.127228 54.821915,171.470932 
	C51.588009,164.151978 52.216572,156.798187 57.266651,150.246078 
	C61.089531,145.286148 66.387756,142.956940 72.498848,142.944901 
	C104.491524,142.881912 136.491333,142.569672 168.474625,143.136002 
	C186.433456,143.454010 199.876129,152.322937 207.687073,168.730194 
	C224.646988,204.355377 241.399124,240.079422 258.281342,275.741699 
	C268.249512,296.798615 278.307373,317.813019 288.316071,338.850739 
	C289.884918,342.148468 291.766083,344.885132 296.012146,344.879303 
	C324.156494,344.840820 352.300934,344.859406 381.145782,344.859406 
	C380.297516,343.641083 379.817078,342.717194 379.125275,341.996033 
	C375.088989,337.788269 370.886414,333.734497 366.959290,329.428711 
	C359.731476,321.503876 360.300476,309.684265 368.113922,302.002167 
	C375.497986,294.742218 388.498840,294.485718 395.778320,301.717957 
	C411.378448,317.216736 426.916718,332.779175 442.350067,348.443909 
	C451.814789,358.050537 451.654541,371.353302 442.223389,380.969879 
	C427.178070,396.310913 412.152802,411.671997 397.026825,426.933258 
	C395.070770,428.906830 392.566010,430.336517 389.962219,432.180176 
z" data-index="1" style="visibility: visible; opacity: 1;"></path>
<path fill="#020202" opacity="1.000000" stroke="none" d="
M422.694031,127.305679 
	C429.433685,134.025497 435.940765,140.477722 442.408295,146.969330 
	C451.286743,155.880753 452.073730,168.741959 443.414398,177.890198 
	C427.726379,194.463898 411.706207,210.731979 395.525116,226.826447 
	C387.709778,234.599930 375.560455,233.853088 367.727142,225.862274 
	C360.064392,218.045425 359.896393,206.423447 367.700775,198.592422 
	C372.380524,193.896698 377.563141,189.702118 382.519775,185.282303 
	C382.119751,184.712814 381.719757,184.143341 381.319763,183.573868 
	C380.093323,183.473984 378.867004,183.288773 377.640411,183.286819 
	C351.475800,183.244995 325.309174,183.387695 299.147949,183.075882 
	C293.090393,183.003693 289.798676,185.056519 287.278656,190.563202 
	C279.045013,208.555267 270.323578,226.324081 261.281433,245.242203 
	C258.613220,239.865005 256.286743,235.361710 254.124466,230.780899 
	C249.436569,220.849518 244.747452,210.916412 240.283524,200.884033 
	C239.590439,199.326370 239.451782,196.955643 240.132599,195.446136 
	C244.170013,186.494415 248.331421,177.586670 252.813690,168.850143 
	C261.391754,152.130417 275.021515,143.108810 294.028625,143.029144 
	C320.859375,142.916702 347.690887,142.984756 374.522095,142.975800 
	C376.461151,142.975143 378.400208,142.975723 381.361877,142.975723 
	C376.262329,137.536224 372.121216,132.624252 367.465424,128.261505 
	C359.168182,120.486496 361.189209,106.754761 367.641388,100.896278 
	C376.077484,93.236420 387.967529,92.735832 395.971893,100.534843 
	C404.917114,109.250641 413.629852,118.205063 422.694031,127.305679 
z" data-index="2" style="visibility: visible; opacity: 1;"></path>
<path fill="#030303" opacity="1.000000" stroke="none" d="
M215.241119,343.284607 
	C212.835632,348.261627 210.513290,352.865814 208.376785,357.554626 
	C200.164001,375.578522 186.213791,384.957977 166.392349,385.086334 
	C141.241989,385.249207 116.089821,385.135651 90.938431,385.137115 
	C84.775703,385.137482 78.608383,385.271027 72.451241,385.081329 
	C60.763424,384.721375 52.980881,376.505951 52.969852,364.752655 
	C52.959126,353.322937 61.157810,344.916992 72.868652,344.872711 
	C102.516861,344.760681 132.166992,344.709534 161.813446,344.967010 
	C167.493301,345.016357 170.558685,342.974579 172.958206,337.972687 
	C181.228973,320.732147 189.865845,303.667206 198.378189,286.542786 
	C198.874817,285.543671 199.503113,284.610046 200.413254,283.062592 
	C205.927353,294.517059 210.541946,305.764099 216.597031,316.173187 
	C221.750732,325.032806 222.788345,332.898773 216.314972,341.182343 
	C215.914581,341.694702 215.706940,342.357697 215.241119,343.284607 
z" data-index="3" style="visibility: visible;"></path>
</svg>