<svg version="1.1" id="Layer_1" xmlns="http://www.w3.org/2000/svg" xmlns:xlink="http://www.w3.org/1999/xlink" x="0px" y="0px"
	 width="100%" viewBox="0 0 496 496" enable-background="new 0 0 496 496" xml:space="preserve">
<path fill="#000000" opacity="1.000000" stroke="none" 
	d="
M233.268311,66.178551 
	C246.457703,64.310745 259.123291,64.169655 271.890259,66.727623 
	C279.848206,68.322060 287.804871,69.669174 295.573914,72.150024 
	C317.215088,79.060585 335.780945,90.903877 351.870422,106.759232 
	C372.873444,127.456596 385.730347,152.647934 391.667572,181.306061 
	C397.502899,209.472137 393.967651,236.756256 382.482422,263.115295 
	C372.904266,285.097504 359.007446,304.395508 345.325836,323.842651 
	C335.473389,337.846954 324.974945,351.376770 313.843658,364.363953 
	C300.338348,380.121002 287.390778,396.383484 272.692169,411.097290 
	C270.812836,412.978577 269.228668,415.151215 267.403778,417.091003 
	C257.731384,427.372437 244.836548,426.917358 235.152481,416.675751 
	C214.584381,394.923492 194.949448,372.372131 176.472244,348.836609 
	C159.730545,327.511719 144.007355,305.475769 130.172607,282.083374 
	C120.838402,266.300690 114.156906,249.753235 111.078712,231.662247 
	C105.911865,201.295975 110.329117,172.461990 123.786285,144.798630 
	C136.313232,119.047485 155.114487,99.178078 179.494232,84.539719 
	C188.167282,79.332161 197.526550,75.449059 207.175110,72.174858 
	C215.578232,69.323288 224.184052,67.783928 233.268311,66.178551 
M300.168365,142.333527 
	C290.162292,134.417358 278.507111,129.907333 266.240906,127.534355 
	C248.211502,124.046455 230.765808,127.048363 214.400223,135.275742 
	C190.924393,147.077621 176.510406,166.404099 170.765472,191.681656 
	C167.538254,205.881226 168.908524,220.252274 173.300476,234.454681 
	C183.240097,266.596771 216.073807,292.333984 251.557083,291.254517 
	C268.821808,290.729248 284.674866,286.890442 298.312439,276.712006 
	C328.106293,254.475281 338.782074,224.392395 331.017242,188.320877 
	C326.973114,169.533905 316.076080,154.473892 300.168365,142.333527 
z"/>
</svg>