<svg version="1.1" id="Layer_1" xmlns="http://www.w3.org/2000/svg" xmlns:xlink="http://www.w3.org/1999/xlink" x="0px" y="0px"
	 width="100%" viewBox="0 0 496 496" enable-background="new 0 0 496 496" xml:space="preserve">
<path fill="#000000" opacity="1.000000" stroke="none" 
	d="
M234.437164,317.697937 
	C204.223267,327.869110 172.979507,306.339508 171.661453,274.861847 
	C171.584824,273.031342 171.383682,271.200714 171.407578,269.372314 
	C171.496719,262.549500 175.924438,257.611511 182.552963,256.848022 
	C189.142044,256.089050 194.626526,259.898926 196.408707,266.395508 
	C197.078629,268.837616 197.175323,271.309814 197.238647,273.815948 
	C197.528641,285.292419 206.430878,295.132507 217.056519,295.796204 
	C228.209274,296.492828 238.461288,288.084961 240.455276,276.720032 
	C240.944946,273.929077 240.352463,272.031647 237.709091,270.518616 
	C230.531693,266.410370 225.569977,260.219208 222.265060,252.731186 
	C217.756073,242.515182 223.175919,233.417908 234.291016,233.108719 
	C247.276947,232.747498 260.283691,232.747711 273.272888,233.011566 
	C284.251801,233.234604 289.657990,241.901108 285.463379,252.115677 
	C282.289154,259.845428 277.377594,266.291992 270.063354,270.540833 
	C267.139374,272.239349 266.369385,274.136261 267.003021,277.467712 
	C269.151001,288.761292 279.254211,296.715790 290.788971,295.824158 
	C301.492401,294.996796 310.578857,285.405121 310.639038,274.413757 
	C310.673096,268.201233 310.946930,262.372192 317.039612,258.713135 
	C324.902130,253.991119 335.071930,258.643372 335.756226,267.878998 
	C337.193878,287.282135 328.797607,306.499237 309.585388,315.497833 
	C290.354004,324.505341 272.748779,321.208466 256.793823,307.592407 
	C256.035980,306.945618 255.253891,306.323669 254.446686,305.740509 
	C254.196274,305.559631 253.825424,305.545380 252.978592,305.302521 
	C247.997635,310.612274 241.833435,314.747864 234.437164,317.697937 
z"/>
<path fill="#000000" opacity="1.000000" stroke="none" 
	d="
M146.871979,240.925171 
	C118.870163,262.567169 76.565750,249.498886 67.000542,215.939728 
	C58.308167,185.442856 75.666611,159.262787 104.382698,151.825577 
	C133.448257,144.297852 166.226883,166.431702 166.574615,201.372391 
	C166.732178,217.203659 160.095978,230.781311 146.871979,240.925171 
M119.965263,183.283630 
	C119.786789,182.301956 119.689156,181.297287 119.417458,180.342133 
	C116.364128,169.607758 104.965355,163.582031 94.646294,167.224564 
	C84.104546,170.945694 78.530693,183.089096 82.696930,193.257904 
	C86.138939,201.659073 96.252625,206.650238 105.424858,204.474289 
	C114.857071,202.236664 120.529915,194.334152 119.965263,183.283630 
z"/>
<path fill="#000000" opacity="1.000000" stroke="none" 
	d="
M428.222229,235.189575 
	C400.332977,263.012787 355.710999,253.969879 342.489868,217.525955 
	C333.146820,191.771851 345.664246,162.715302 375.078552,152.981888 
	C394.457001,146.569397 411.779205,151.549530 426.055359,165.444443 
	C440.346161,179.353592 444.352051,196.715851 439.169830,215.934784 
	C437.247925,223.062408 433.148285,229.219498 428.222229,235.189575 
M368.257904,203.459351 
	C378.946930,207.315491 389.877045,202.982056 393.619141,193.404419 
	C397.532593,183.388214 393.294189,172.220673 384.000305,168.060165 
	C374.039093,163.600922 362.757629,167.912094 358.100616,177.957733 
	C353.725983,187.394089 357.690338,197.900574 368.257904,203.459351 
z"/>
<path fill="#000000" opacity="1.000000" stroke="none" 
	d="
M93.103531,290.078308 
	C106.066231,312.270233 90.145706,336.544159 68.452225,338.141418 
	C52.888588,339.287323 38.691132,328.968964 35.411980,314.781281 
	C31.737648,298.883850 38.766121,283.796051 52.678799,277.715118 
	C67.642822,271.174652 83.796135,275.995941 93.103531,290.078308 
z"/>
<path fill="#000000" opacity="1.000000" stroke="none" 
	d="
M464.805786,286.277222 
	C476.441681,302.025604 472.446838,318.580109 463.001038,328.579010 
	C454.016998,338.089172 440.967163,340.707855 428.555298,335.777069 
	C416.671265,331.056030 408.779297,319.741974 408.669891,307.268829 
	C408.546356,293.190491 415.437164,282.414154 427.794891,277.359650 
	C441.080017,271.925812 454.129364,274.992188 464.805786,286.277222 
z"/>
</svg>