<svg version="1.1" id="Layer_1" xmlns="http://www.w3.org/2000/svg" xmlns:xlink="http://www.w3.org/1999/xlink" x="0px" y="0px"
	 width="100%" viewBox="0 0 1024 1024" enable-background="new 0 0 1024 1024" xml:space="preserve">
<path fill="#000000" opacity="1.000000" stroke="none" 
	d="
M528.979370,832.168335 
	C510.335571,832.136292 492.162537,832.801208 474.100555,830.312927 
	C458.104279,828.109131 442.248047,825.131714 426.695770,820.782104 
	C397.018066,812.482056 368.967224,800.392151 343.072113,783.608337 
	C278.907715,742.020569 233.651321,685.650208 209.443527,612.727051 
	C196.116196,572.580078 192.321945,531.255798 195.074997,489.445465 
	C198.232285,441.496216 211.209305,396.115417 235.336609,354.221588 
	C259.609283,312.075378 292.106750,277.555237 331.928101,249.803146 
	C360.057434,230.199371 390.693848,215.804291 423.580780,206.283859 
	C463.842133,194.628632 504.768738,190.878479 546.570557,195.504486 
	C626.815430,204.384781 694.212280,238.730286 748.988281,297.576355 
	C789.193542,340.769104 814.498108,391.868439 825.984436,449.791656 
	C831.923279,479.740082 833.150757,510.093597 830.909851,540.311035 
	C827.082458,591.921265 811.550537,640.024353 783.404480,683.822021 
	C753.815857,729.864319 715.304260,766.388245 667.498169,792.993042 
	C638.030823,809.392212 606.655640,820.822266 573.479675,826.932434 
	C558.955872,829.607300 544.367676,832.322021 528.979370,832.168335 
M560.802612,639.395264 
	C534.313354,649.554749 507.336975,650.471008 479.916565,643.795227 
	C461.686340,639.356934 445.117279,631.406250 430.378448,619.906982 
	C404.501709,599.717896 387.813446,573.513000 380.412628,541.503113 
	C379.597534,537.977600 378.340576,535.936401 374.269073,535.926758 
	C332.949707,535.828552 291.630493,535.628540 250.311737,535.376770 
	C246.406250,535.352966 244.796249,536.923279 245.175919,540.770630 
	C245.861404,547.717163 246.613586,554.635071 247.826965,561.532532 
	C254.688019,600.533997 269.289001,636.416443 292.482361,668.412048 
	C332.276886,723.309265 384.695221,759.868530 451.231720,775.434265 
	C470.272675,779.888794 489.492249,782.329224 508.978912,782.738525 
	C522.625183,783.025085 536.162109,781.812073 549.737793,779.997192 
	C565.313416,777.914978 580.605225,774.813171 595.474792,770.009155 
	C643.367249,754.536255 683.771851,727.482971 716.869385,689.657593 
	C753.718872,647.544189 775.224365,598.636475 780.773560,542.845764 
	C781.445740,536.087769 781.391602,536.045654 774.376404,536.038147 
	C735.218140,535.996094 696.059875,535.980164 656.901611,535.939209 
	C647.168579,535.929016 647.273926,535.929932 644.746887,545.330017 
	C632.621948,590.432190 604.622131,621.488220 560.802612,639.395264 
M596.659363,495.907349 
	C595.954346,493.170410 595.425232,490.373657 594.517944,487.705444 
	C579.214233,442.697174 530.985962,416.930145 484.380951,433.565521 
	C443.959625,447.993652 419.175476,492.106567 430.782684,534.720520 
	C441.482239,574.002136 479.421814,602.139648 523.492004,596.757202 
	C547.227417,593.858398 566.239136,582.816223 580.836609,564.033508 
	C588.820923,553.759949 594.184021,542.260071 596.789734,529.452515 
	C599.012329,518.527954 599.156921,507.658905 596.659363,495.907349 
z"/>
</svg>